<svg xmlns="http://www.w3.org/2000/svg" viewBox="0 0 64 64" role="img" aria-labelledby="title">
  <title>CDR Dashboard</title>
  <defs>
    <linearGradient id="cdrGradient" x1="0" y1="0" x2="1" y2="1">
      <stop offset="0%" stop-color="#0f766e" />
      <stop offset="100%" stop-color="#155e75" />
    </linearGradient>
  </defs>
  <rect x="6" y="6" width="52" height="52" rx="14" fill="url(#cdrGradient)" />
  <path
    d="M24 20.5h8.5c6.5 0 11 4.5 11 11.5S39 43.5 32.5 43.5H24zM30 26v12h2.2c3.5 0 5.8-2.2 5.8-6s-2.3-6-5.8-6z"
    fill="#ffffff"
  />
  <path
    d="M17 25.5c1.8-3.3 4.9-5 9-5 2.7 0 5 .6 7 1.9l-2.4 4.3c-1.3-.8-2.8-1.2-4.4-1.2-3.9 0-6.6 2.6-6.6 6.5s2.7 6.5 6.6 6.5c1.7 0 3.1-.4 4.4-1.2l2.4 4.3c-2 1.3-4.3 1.9-7 1.9-4.1 0-7.2-1.7-9-5-1.1-1.8-1.6-4-1.6-6.5s.5-4.7 1.6-6.5"
    fill="#dff7f4"
  />
</svg>
